<svg width="300" height="300" viewBox="0 0 300 300" fill="none" xmlns="http://www.w3.org/2000/svg">
<g clip-path="url(#clip0_227_527)">
<path d="M75.6764 287.883C75.3454 287.898 75.0177 287.812 74.7377 287.636C74.4577 287.46 74.239 287.203 74.1112 286.9C73.9833 286.596 73.9526 286.261 74.023 285.94C74.0935 285.618 74.2618 285.326 74.5052 285.103C74.5459 284.942 74.5751 284.826 74.6159 284.666C74.2991 283.867 73.7492 283.18 73.0367 282.694C72.3241 282.207 71.4814 281.943 70.6166 281.935C69.7518 281.927 68.9042 282.175 68.1826 282.648C67.4609 283.121 66.8981 283.798 66.5662 284.59C64.6508 289.041 62.1718 293.648 63.4046 298.549C55.2614 281.418 58.0307 260.108 70.0653 245.458C73.3919 243.639 76.0881 240.407 76.79 236.655C75.1437 237.209 73.091 235.879 74.3289 234.158C74.8654 233.5 75.4072 232.847 75.9437 232.19C69.6898 225.578 62.2385 235.969 69.1222 244.892C66.8703 247.694 64.9198 250.723 63.3024 253.928C63.6759 250.524 63.2301 247.082 62.0017 243.883C60.7567 240.901 58.4231 238.391 56.3681 235.813C53.8696 232.673 48.7272 234.122 48.3909 238.107C50.6968 238.859 50.9964 242.165 48.3587 242.618C49.0496 250.031 53.929 256.845 60.6494 260.096C58.1676 267.008 57.1985 274.366 57.8067 281.679C56.6205 273.132 47.3779 271.058 40.9178 267.661C40.5067 267.399 40.0277 267.262 39.5392 267.266C39.0508 267.27 38.5741 267.415 38.1672 267.683C37.7603 267.951 37.4409 268.331 37.2478 268.776C37.0548 269.222 36.9965 269.713 37.0801 270.191C37.9717 270.551 38.8251 270.998 39.6277 271.525C40.0038 271.776 40.2925 272.136 40.4542 272.557C40.6159 272.977 40.6427 273.436 40.5309 273.872C40.4192 274.308 40.1743 274.699 39.8299 274.992C39.4855 275.284 39.0584 275.464 38.6072 275.506C41.8635 283.505 50.2824 288.877 58.929 288.847C59.76 292.431 60.9639 295.92 62.5215 299.257H75.3549C75.4009 299.115 75.4423 298.969 75.4837 298.828C74.2958 298.902 73.1032 298.831 71.9326 298.618C75.0754 294.924 77.5059 293.04 75.6768 287.883L75.6764 287.883Z" fill="#F2F2F2"/>
<path d="M190.088 287.883C190.419 287.898 190.747 287.812 191.027 287.636C191.307 287.46 191.526 287.203 191.653 286.9C191.781 286.596 191.812 286.261 191.742 285.94C191.671 285.618 191.503 285.326 191.259 285.103C191.219 284.942 191.189 284.826 191.149 284.666C191.466 283.867 192.015 283.18 192.728 282.694C193.44 282.207 194.283 281.943 195.148 281.935C196.013 281.927 196.86 282.175 197.582 282.648C198.304 283.121 198.867 283.798 199.198 284.59C201.114 289.041 203.593 293.648 202.36 298.549C210.503 281.418 207.734 260.108 195.699 245.458C192.373 243.639 189.677 240.407 188.975 236.655C190.621 237.209 192.674 235.879 191.436 234.158C190.899 233.5 190.357 232.847 189.821 232.19C196.075 225.578 203.526 235.969 196.642 244.892C198.894 247.694 200.845 250.723 202.462 253.928C202.089 250.524 202.534 247.082 203.763 243.883C205.008 240.901 207.341 238.391 209.396 235.813C211.895 232.673 217.037 234.122 217.374 238.107C215.068 238.859 214.768 242.165 217.406 242.618C216.715 250.031 211.836 256.845 205.115 260.096C207.597 267.008 208.566 274.366 207.958 281.679C209.144 273.132 218.387 271.058 224.847 267.661C225.258 267.399 225.737 267.262 226.225 267.266C226.714 267.27 227.191 267.415 227.597 267.683C228.004 267.951 228.324 268.331 228.517 268.776C228.71 269.222 228.768 269.713 228.685 270.191C227.793 270.551 226.94 270.998 226.137 271.525C225.761 271.776 225.472 272.136 225.31 272.557C225.149 272.977 225.122 273.436 225.234 273.872C225.345 274.308 225.59 274.699 225.935 274.992C226.279 275.284 226.706 275.464 227.157 275.506C223.901 283.505 215.482 288.877 206.836 288.847C206.005 292.431 204.801 295.92 203.243 299.257H190.41C190.364 299.115 190.322 298.969 190.281 298.828C191.469 298.902 192.661 298.831 193.832 298.618C190.689 294.924 188.259 293.04 190.088 287.883Z" fill="#F2F2F2"/>
<path d="M194.847 289.775L189.32 291.022L181.84 270.456L189.997 268.614L194.847 289.775Z" fill="#FFB6B6"/>
<path d="M196.354 295.454L179.359 299.292L179.31 299.079C178.911 297.337 179.225 295.51 180.183 293.998C181.141 292.486 182.665 291.415 184.419 291.018L186.988 287.979L193.316 289.009L194.8 288.674L196.354 295.454Z" fill="#201F22"/>
<path d="M284.003 189.527L287.041 194.277L270.031 208.171L265.547 201.161L284.003 189.527Z" fill="#FFB6B6"/>
<path d="M288.887 186.214L298.231 200.819L298.045 200.936C296.526 201.893 294.686 202.213 292.93 201.824C291.174 201.435 289.645 200.369 288.681 198.862L284.935 197.479L283.789 191.216L282.974 189.941L288.887 186.214Z" fill="#201F22"/>
<path d="M107.829 138.75L106.464 130.897L127.217 121.595L131.698 113.718C131.554 113.027 131.604 112.31 131.845 111.645C132.085 110.981 132.505 110.395 133.06 109.953C133.614 109.511 134.281 109.23 134.987 109.14C135.692 109.051 136.409 109.156 137.057 109.446C137.706 109.735 138.261 110.197 138.662 110.78C139.063 111.363 139.294 112.045 139.329 112.75C139.364 113.455 139.202 114.156 138.861 114.775C138.52 115.395 138.013 115.909 137.396 116.26L130.024 127.574L107.829 138.75Z" fill="#A0616A"/>
<path d="M101.521 132.33L110.866 127.591L113.34 136.812L106.849 141.588L101.521 132.33Z" fill="#EB5A00"/>
<path d="M80.5502 289.06L86.2007 289.06L88.8889 267.425L80.5488 267.426L80.5502 289.06Z" fill="#A0616A"/>
<path d="M88.081 289.565V285.763L86.5955 285.853L80.5483 286.208L79.1487 286.294L78.0788 299.029L78.0215 299.712H82.0338L82.1628 299.034L82.7455 295.952L84.2502 299.034L84.5798 299.712H95.2172C95.8502 299.708 96.4561 299.456 96.9033 299.011C97.3504 298.567 97.6028 297.965 97.6055 297.336C98.0545 295.255 89.2083 290.755 88.081 289.565Z" fill="#201F22"/>
<path d="M13.4735 203.2L12.1562 208.655L32.7247 216.294L34.6686 208.244L13.4735 203.2Z" fill="#A0616A"/>
<path d="M11.6698 210.352L15.395 211.239L15.6531 209.784L16.7147 203.864L16.9574 202.493L4.73057 198.491L4.07505 198.276L3.13953 202.149L3.77368 202.432L6.65703 203.713L3.28699 204.447L2.54591 204.607L0.0656843 214.875C-0.0780101 215.487 0.0272893 216.13 0.358738 216.666C0.690186 217.201 1.22101 217.585 1.83593 217.734C3.77038 218.653 10.241 211.163 11.6698 210.352Z" fill="#201F22"/>
<path d="M89.2865 149.041L82.0131 145.666L67.5085 163.089L58.6735 165.307C58.0399 164.987 57.3293 164.846 56.6203 164.901C55.9113 164.956 55.2315 165.205 54.6558 165.62C54.0802 166.034 53.6312 166.599 53.3585 167.25C53.0857 167.902 52.9998 168.617 53.1103 169.314C53.2207 170.011 53.5232 170.665 53.9844 171.202C54.4455 171.74 55.0473 172.14 55.7233 172.359C56.3993 172.579 57.1232 172.608 57.8151 172.445C58.5069 172.281 59.1398 171.931 59.6437 171.433L72.5809 167.352L89.2865 149.041Z" fill="#A0616A"/>
<path d="M192.404 84.5408C190.862 84.5408 189.355 84.087 188.073 83.2368C186.791 82.3866 185.792 81.1781 185.202 79.7642C184.612 78.3504 184.457 76.7946 184.758 75.2936C185.059 73.7927 185.801 72.414 186.892 71.3318C187.982 70.2497 189.371 69.5128 190.883 69.2142C192.395 68.9157 193.962 69.0689 195.387 69.6546C196.811 70.2402 198.028 71.2319 198.885 72.5044C199.742 73.7768 200.199 75.2728 200.199 76.8032C200.196 78.8546 199.374 80.8214 197.913 82.272C196.452 83.7226 194.47 84.5385 192.404 84.5408ZM192.404 69.9535C191.039 69.9535 189.705 70.3553 188.57 71.1079C187.435 71.8606 186.551 72.9303 186.028 74.1819C185.506 75.4335 185.369 76.8108 185.636 78.1395C185.902 79.4682 186.559 80.6887 187.524 81.6466C188.489 82.6046 189.719 83.2569 191.057 83.5212C192.396 83.7855 193.783 83.6499 195.044 83.1314C196.305 82.613 197.383 81.7351 198.141 80.6086C198.899 79.4822 199.304 78.1579 199.304 76.8032C199.302 74.9872 198.574 73.2461 197.281 71.962C195.987 70.6779 194.233 69.9556 192.404 69.9535Z" fill="#E6E6E6"/>
<path d="M191.854 79.7182C191.838 79.7182 191.823 79.7177 191.807 79.717C191.669 79.7103 191.533 79.6741 191.41 79.6106C191.287 79.5472 191.18 79.4582 191.095 79.3496L189.867 77.7825C189.789 77.6836 189.732 77.5705 189.699 77.4497C189.665 77.3289 189.656 77.2026 189.671 77.0783C189.687 76.9539 189.727 76.8338 189.79 76.7249C189.852 76.6159 189.936 76.5202 190.035 76.4433L190.079 76.4092C190.179 76.3322 190.293 76.2754 190.415 76.2421C190.537 76.2088 190.664 76.1997 190.789 76.2153C190.914 76.2308 191.035 76.2707 191.145 76.3327C191.255 76.3947 191.351 76.4776 191.429 76.5766C191.491 76.6556 191.569 76.7204 191.659 76.7666C191.749 76.8128 191.847 76.8392 191.948 76.8441C192.049 76.8489 192.149 76.8321 192.243 76.7948C192.337 76.7575 192.421 76.7006 192.491 76.6279L194.984 74.0152C195.159 73.8317 195.401 73.7248 195.656 73.7179C195.911 73.711 196.158 73.8047 196.343 73.9785L196.384 74.0172C196.476 74.1033 196.549 74.2066 196.601 74.3211C196.652 74.4355 196.681 74.5589 196.684 74.6842C196.687 74.8095 196.666 74.9342 196.621 75.0512C196.576 75.1683 196.508 75.2753 196.421 75.3663L192.552 79.4201C192.462 79.5143 192.354 79.5893 192.234 79.6405C192.114 79.6918 191.985 79.7182 191.854 79.7182Z" fill="#E6E6E6"/>
<path d="M153.49 178.221C151.948 178.221 150.441 177.767 149.159 176.917C147.877 176.067 146.878 174.859 146.288 173.445C145.698 172.031 145.543 170.475 145.844 168.974C146.145 167.473 146.887 166.094 147.977 165.012C149.068 163.93 150.457 163.193 151.969 162.895C153.481 162.596 155.048 162.749 156.473 163.335C157.897 163.921 159.114 164.912 159.971 166.185C160.828 167.457 161.285 168.953 161.285 170.484C161.282 172.535 160.46 174.502 158.999 175.952C157.538 177.403 155.556 178.219 153.49 178.221ZM153.49 163.634C152.125 163.634 150.791 164.036 149.656 164.788C148.521 165.541 147.636 166.611 147.114 167.862C146.592 169.114 146.455 170.491 146.721 171.82C146.988 173.149 147.645 174.369 148.61 175.327C149.575 176.285 150.805 176.937 152.143 177.202C153.482 177.466 154.869 177.33 156.13 176.812C157.391 176.293 158.469 175.415 159.227 174.289C159.985 173.163 160.39 171.838 160.39 170.484C160.388 168.668 159.66 166.927 158.367 165.642C157.073 164.358 155.319 163.636 153.49 163.634Z" fill="#E6E6E6"/>
<path d="M152.94 173.399C152.924 173.399 152.909 173.398 152.893 173.397C152.755 173.391 152.619 173.354 152.496 173.291C152.373 173.228 152.266 173.139 152.181 173.03L150.953 171.463C150.875 171.364 150.818 171.251 150.784 171.13C150.751 171.009 150.742 170.883 150.757 170.759C150.773 170.634 150.813 170.514 150.876 170.405C150.938 170.296 151.021 170.201 151.121 170.124L151.165 170.09C151.265 170.013 151.379 169.956 151.501 169.923C151.623 169.889 151.75 169.88 151.875 169.896C152 169.911 152.121 169.951 152.231 170.013C152.341 170.075 152.437 170.158 152.515 170.257C152.577 170.336 152.655 170.401 152.745 170.447C152.834 170.493 152.933 170.52 153.034 170.524C153.135 170.529 153.235 170.513 153.329 170.475C153.423 170.438 153.507 170.381 153.577 170.308L156.07 167.696C156.245 167.512 156.487 167.405 156.742 167.398C156.997 167.391 157.244 167.485 157.429 167.659L157.47 167.698C157.562 167.784 157.635 167.887 157.687 168.001C157.738 168.116 157.767 168.239 157.77 168.365C157.773 168.49 157.752 168.615 157.707 168.732C157.662 168.849 157.594 168.956 157.507 169.047L153.638 173.101C153.548 173.195 153.44 173.27 153.32 173.321C153.2 173.372 153.071 173.399 152.94 173.399Z" fill="#E6E6E6"/>
<path d="M68.0579 73.8852C66.5161 73.8852 65.009 73.4314 63.7271 72.5812C62.4452 71.731 61.4461 70.5225 60.8561 69.1087C60.2661 67.6948 60.1117 66.139 60.4125 64.6381C60.7133 63.1371 61.4557 61.7584 62.5458 60.6763C63.636 59.5942 65.025 58.8572 66.5371 58.5587C68.0492 58.2601 69.6166 58.4133 71.041 58.999C72.4653 59.5846 73.6828 60.5764 74.5393 61.8488C75.3959 63.1213 75.8531 64.6172 75.8531 66.1476C75.8507 68.199 75.0287 70.1658 73.5673 71.6164C72.106 73.067 70.1246 73.8829 68.0579 73.8852ZM68.0579 59.2979C66.6931 59.2979 65.3589 59.6997 64.2241 60.4523C63.0893 61.205 62.2048 62.2747 61.6825 63.5264C61.1603 64.778 61.0236 66.1552 61.2899 67.4839C61.5561 68.8126 62.2134 70.0331 63.1784 70.991C64.1435 71.949 65.373 72.6013 66.7116 72.8656C68.0502 73.1299 69.4377 72.9943 70.6986 72.4759C71.9595 71.9574 73.0373 71.0795 73.7955 69.9531C74.5538 68.8266 74.9585 67.5023 74.9585 66.1476C74.9564 64.3316 74.2287 62.5906 72.935 61.3064C71.6414 60.0223 69.8874 59.3 68.0579 59.2979Z" fill="#E6E6E6"/>
<path d="M67.5083 69.0626C67.4926 69.0626 67.477 69.0621 67.4613 69.0614C67.3229 69.0547 67.1876 69.0185 67.0646 68.9551C66.9417 68.8916 66.834 68.8026 66.749 68.694L65.521 67.127C65.4435 67.0281 65.3863 66.9149 65.3528 66.7941C65.3193 66.6733 65.3101 66.5471 65.3258 66.4227C65.3414 66.2983 65.3816 66.1782 65.444 66.0693C65.5064 65.9603 65.5898 65.8647 65.6895 65.7877L65.7337 65.7536C65.8334 65.6766 65.9473 65.6198 66.0691 65.5865C66.1909 65.5533 66.3181 65.5441 66.4434 65.5597C66.5687 65.5752 66.6897 65.6151 66.7995 65.6771C66.9093 65.7391 67.0057 65.822 67.0832 65.921C67.1452 66 67.2237 66.0648 67.3133 66.111C67.4028 66.1572 67.5014 66.1836 67.6022 66.1885C67.7031 66.1933 67.8038 66.1766 67.8974 66.1392C67.9911 66.1019 68.0756 66.045 68.1451 65.9723L70.6383 63.3596C70.8138 63.1761 71.0555 63.0692 71.3103 63.0623C71.5651 63.0554 71.8122 63.1491 71.9975 63.3229L72.0384 63.3616C72.1301 63.4478 72.2038 63.551 72.2552 63.6655C72.3067 63.7799 72.3349 63.9033 72.3383 64.0286C72.3417 64.1539 72.3203 64.2786 72.2751 64.3956C72.2299 64.5127 72.162 64.6197 72.0751 64.7107L68.2059 68.7646C68.1162 68.8587 68.008 68.9337 67.8881 68.985C67.7681 69.0362 67.6389 69.0626 67.5083 69.0626Z" fill="#E6E6E6"/>
<path d="M130.467 206.991C112.391 206.991 91.6166 187.08 73.2369 196.54C17.5878 225.183 25.2483 177.253 9.26074 159.428L9.78561 158.383C27.426 174.083 49.4506 186.858 73.4785 195.324C95.1922 202.976 117.069 206.522 136.735 205.586L136.769 206.842C134.692 206.941 132.591 206.991 130.467 206.991Z" fill="#F2F2F2"/>
<path d="M105.671 72.3706C107.758 72.3706 109.449 70.119 109.449 67.3414C109.449 64.5638 107.758 62.3122 105.671 62.3122C103.584 62.3122 101.893 64.5638 101.893 67.3414C101.893 70.119 103.584 72.3706 105.671 72.3706Z" fill="#E6E6E6"/>
<path d="M149.311 150.827C147.584 151.969 145.816 149.25 147.576 148.158C149.304 147.016 151.072 149.735 149.311 150.827Z" fill="#E6E6E6"/>
<path d="M139.368 59.285C142.086 59.285 144.289 57.0985 144.289 54.4012C144.289 51.704 142.086 49.5174 139.368 49.5174C136.651 49.5174 134.448 51.704 134.448 54.4012C134.448 57.0985 136.651 59.285 139.368 59.285Z" fill="#FF6584"/>
<path opacity="0.3" d="M156.577 81.1641L184.574 0L153.831 80.1925C153.679 80.3828 153.575 80.6064 153.527 80.8447C153.48 81.083 153.49 81.3291 153.558 81.5626C153.625 81.7961 153.747 82.0104 153.915 82.1875C154.082 82.3646 154.29 82.4996 154.52 82.5811C154.751 82.6627 154.998 82.6886 155.24 82.6565C155.483 82.6245 155.714 82.5356 155.915 82.397C156.116 82.2585 156.281 82.0744 156.396 81.8599C156.511 81.6455 156.573 81.407 156.577 81.1641Z" fill="#F0F0F0"/>
<path d="M128.317 180.046C130.961 180.046 133.104 177.918 133.104 175.294C133.104 172.67 130.961 170.542 128.317 170.542C125.673 170.542 123.53 172.67 123.53 175.294C123.53 177.918 125.673 180.046 128.317 180.046Z" fill="#F2F2F2"/>
<path d="M81.9544 177.106C81.9544 177.106 70.0205 184.82 73.1761 189.946C73.2849 190.122 58.9212 208.953 58.9212 208.953L31.8059 207.244L30.8506 216.253L54.9905 223.193C54.9905 223.193 60.8961 227.499 65.4583 222.754C70.0205 218.009 85.2168 203.479 85.2168 203.479L85.9498 232.816L78.3213 273.468L89.7115 272.751L100.798 231.967L104.89 185.768L81.9544 177.106Z" fill="#201F22"/>
<path d="M90.4547 130.813L85.4363 134.588L79.7164 146.706L85.2166 154.121C85.2166 154.121 89.8432 162.08 82.4376 169.788C75.032 177.496 69.3452 185.728 75.2727 185.434C81.2002 185.14 105.207 197.261 105.365 187.331C105.523 177.401 105.843 169.788 105.843 169.788L112.137 153.942C112.137 153.942 115.887 144.488 113.254 141.659C110.621 138.829 107.096 135.213 107.096 135.213L100.686 128.85H94.8975L90.4547 130.813Z" fill="#EB5A00"/>
<path d="M99.8229 107.53C111.081 113.889 101.839 130.668 90.3705 124.693C79.1125 118.334 88.355 101.555 99.8229 107.53Z" fill="#A0616A"/>
<path d="M105.843 111.056C105.054 112.074 103.406 111.597 100.178 112.323C100.185 111.237 100.059 110.155 99.8017 109.099C99.5615 110.406 99.0353 111.645 98.26 112.728C95.4575 113.036 98.8931 121.487 97.4581 127.701C95.6093 114.592 91.7205 118.027 93.6851 120.627C94.9427 122.291 94.1043 127.285 90.3313 124.788C84.106 127.725 75.2392 113.136 85.0663 106.295C84.8907 102.596 89.0362 102.012 91.5889 103.149C97.7841 98.5684 104.862 104.438 105.843 111.056Z" fill="#201F22"/>
<path d="M76.9567 101.491C74.4501 116.788 61.0153 98.6773 54.6984 113.731C52.7122 119.183 56.1199 123.083 58.2755 127.608C58.7674 131.327 53.8935 133.214 53.383 136.637C53.2409 144.485 65.9964 144.005 69.5623 139.053C73.2263 133.87 68.851 126.916 71.0533 121.352C74.1486 113.628 86.7368 113.571 87.8334 104.584C85.7096 101.582 79.9986 98.1438 76.9567 101.491Z" fill="#201F22"/>
<path d="M87.1104 102.985C87.0284 103.02 86.9464 103.054 86.8731 103.092H86.8687C86.7997 103.127 86.7306 103.161 86.6616 103.2C86.653 103.204 86.6487 103.208 86.64 103.212C86.5494 103.127 86.4588 103.041 86.3638 102.955C86.3393 103.095 86.3451 103.238 86.3811 103.375L86.394 103.427C86.4804 103.517 86.571 103.602 86.6659 103.692C86.7523 103.628 86.8343 103.559 86.9205 103.495C86.9724 103.452 87.0241 103.409 87.0803 103.367C87.0889 103.255 87.1018 103.127 87.1148 102.985L87.1104 102.985ZM89.7085 98.2217C87.7837 97.7847 87.1622 100.282 86.9766 101.486C86.2775 97.1164 83.3687 98.4916 84.3742 101.473C84.6948 102.356 85.1992 103.162 85.8545 103.838C85.9452 103.941 86.0444 104.043 86.148 104.146C86.0315 104.746 86.6184 104.592 87.4125 104.039C87.9989 103.625 88.5412 103.153 89.031 102.63C90.6148 100.981 91.8492 98.7743 89.7085 98.2217ZM89.769 100.681C89.1751 101.441 88.5088 102.142 87.7794 102.775C87.5506 102.981 87.3176 103.178 87.0803 103.367C87.0759 103.405 87.0759 103.439 87.0716 103.469C87.0549 103.511 87.0347 103.551 87.0112 103.589C86.7695 104.022 86.4976 103.786 86.394 103.427C86.3854 103.414 86.3725 103.401 86.3638 103.388C86.0189 103.034 85.7189 102.64 85.4704 102.214C83.688 99.147 86.558 97.0607 86.4156 102.788C86.3894 102.841 86.3719 102.897 86.3638 102.955C86.3393 103.095 86.3451 103.238 86.3811 103.375L86.394 103.427C86.4804 103.517 86.571 103.602 86.6659 103.692C86.7523 103.628 86.8343 103.559 86.9205 103.495C86.9724 103.452 87.0241 103.409 87.0803 103.367C87.0889 103.255 87.1018 103.127 87.1148 102.985V102.981C87.227 101.833 87.5334 99.7681 88.0988 99.207C89.3417 98.2602 90.9515 99.2841 89.769 100.681ZM87.1104 102.985C87.0284 103.02 86.9464 103.054 86.8731 103.092H86.8687C86.7997 103.127 86.7306 103.161 86.6616 103.2C86.653 103.204 86.6487 103.208 86.64 103.212C86.5494 103.127 86.4588 103.041 86.3638 102.955C86.3393 103.095 86.3451 103.238 86.3811 103.375L86.394 103.427C86.4804 103.517 86.571 103.602 86.6659 103.692C86.7523 103.628 86.8343 103.559 86.9205 103.495C86.9724 103.452 87.0241 103.409 87.0803 103.367C87.0889 103.255 87.1018 103.127 87.1148 102.985L87.1104 102.985Z" fill="#201F22"/>
<path d="M191.168 187.324L187.01 198.088L167.505 236.279L184.644 280.707L193.49 278.39L186.199 236.279L207.116 211.052L231.956 227.776C231.956 227.776 242.973 236.313 247.164 228.22C251.355 220.127 278.474 202.913 278.474 202.913L271.765 195.809L240.536 210.315L218.981 180.201L191.168 187.324Z" fill="#201F22"/>
<path d="M212.149 136.553L205.304 129.253L193.563 127.65L179.177 137.647L179.322 148.713L186.433 174.787C186.433 174.787 183.725 193.521 191.291 193.333C198.857 193.145 202.981 189.401 206.063 190.163C209.145 190.925 222.245 194.169 223.075 190.771C223.905 187.373 228.318 189.806 228.125 186.592C227.931 183.377 216.178 160.207 216.178 160.207L219.1 137.035L212.149 136.553Z" fill="#EB5A00"/>
<path d="M255.487 102.952C255.548 103.557 255.475 104.169 255.273 104.743C255.07 105.317 254.743 105.84 254.315 106.276C253.887 106.711 253.368 107.048 252.794 107.262C252.221 107.477 251.607 107.564 250.995 107.517L235.255 137.232L231.029 130.792L247.118 102.748C247.265 101.734 247.781 100.809 248.569 100.148C249.357 99.4866 250.362 99.1352 251.394 99.1603C252.425 99.1853 253.412 99.5852 254.166 100.284C254.921 100.983 255.391 101.932 255.487 102.952Z" fill="#FFB6B6"/>
<path d="M205.935 142.078C205.935 142.078 205.31 147.363 211.305 148.672C217.299 149.98 233.907 140.561 236.63 139.122C237.482 138.671 238.639 136.463 239.826 133.642C240.359 132.376 240.898 130.986 241.419 129.576C241.72 128.76 243.161 128.537 243.445 127.728C243.727 126.924 242.851 125.532 243.107 124.774C244.32 121.174 245.179 118.318 245.179 118.318L241.206 110.91C235.649 113.826 232.799 120.249 230.703 127.649L205.935 142.078Z" fill="#EB5A00"/>
<path d="M135.925 109.776C136.019 110.377 136.244 110.951 136.585 111.456C136.926 111.962 137.374 112.387 137.898 112.702C138.423 113.017 139.01 113.214 139.62 113.28C140.229 113.345 140.845 113.277 141.425 113.08L164.156 137.939L166.624 130.654L143.977 107.5C143.579 106.554 142.846 105.787 141.917 105.342C140.987 104.898 139.925 104.807 138.933 105.088C137.94 105.368 137.086 106 136.532 106.864C135.977 107.728 135.762 108.764 135.925 109.776Z" fill="#FFB6B6"/>
<path d="M193.765 135.347C193.765 135.347 195.702 140.309 190.228 143.065C184.754 145.821 166.3 140.827 163.301 140.111C162.362 139.886 160.685 138.036 158.825 135.599C157.99 134.505 157.117 133.294 156.258 132.058C155.761 131.343 154.309 131.485 153.83 130.772C153.354 130.063 153.851 128.499 153.413 127.828C151.331 124.644 149.779 122.093 149.779 122.093L151.758 113.933C157.873 115.376 162.252 120.887 166.147 127.53L193.765 135.347Z" fill="#EB5A00"/>
<path d="M199.668 125.793C205.837 125.793 210.839 120.828 210.839 114.704C210.839 108.58 205.837 103.615 199.668 103.615C193.498 103.615 188.496 108.58 188.496 114.704C188.496 120.828 193.498 125.793 199.668 125.793Z" fill="#FFB6B6"/>
<path d="M212.42 108.355C211.245 106.55 209.04 105.348 206.902 105.686C206.703 104.331 206.134 103.057 205.256 102.002C204.378 100.947 203.225 100.151 201.923 99.701C200.621 99.2511 199.22 99.1644 197.871 99.4503C196.523 99.7363 195.28 100.384 194.276 101.323C193.946 101.092 193.562 100.95 193.161 100.91C192.759 100.87 192.354 100.934 191.985 101.095C191.249 101.427 190.609 101.937 190.123 102.578C188.897 104.097 188.108 105.917 187.84 107.845C187.573 109.774 187.838 111.738 188.606 113.528C188.345 112.586 189.296 111.699 190.258 111.487C191.22 111.276 192.229 111.476 193.204 111.338C194.454 111.161 195.578 110.442 196.829 110.28C197.891 110.211 198.956 110.347 199.966 110.68C200.975 111.012 202.039 111.154 203.101 111.098C204.154 110.973 205.512 114.937 205.494 117.729C205.49 118.258 205.6 118.937 206.121 119.049C206.762 119.188 207.134 118.309 207.744 118.069C208.026 117.989 208.328 118.021 208.586 118.157C208.844 118.294 209.039 118.524 209.13 118.801C209.207 119.082 209.215 119.377 209.154 119.662C209.093 119.946 208.964 120.212 208.778 120.438C208.403 120.884 207.958 121.268 207.459 121.574L207.71 121.781C207.949 122.032 208.268 122.192 208.613 122.234C208.957 122.277 209.306 122.199 209.599 122.014C210.176 121.627 210.643 121.099 210.955 120.482C212.134 118.673 212.976 116.669 213.443 114.565C213.836 112.452 213.595 110.159 212.42 108.355Z" fill="#201F22"/>
<path d="M295.066 152.09C280.657 162.923 251.985 159.501 243.088 178.058C216.149 234.241 193.102 191.443 169.515 186.814L169.298 185.667C192.91 187.611 218.237 184.595 242.541 176.944C264.505 170.03 284.101 159.746 299.209 147.214L300 148.195C298.405 149.519 296.76 150.817 295.066 152.09Z" fill="#F2F2F2"/>
<path d="M234.143 299.243C233.8 300.252 37.8556 300.252 37.4854 299.245C37.8281 298.234 233.772 298.234 234.143 299.243Z" fill="#CCCCCC"/>
</g>
<defs>
<clipPath id="clip0_227_527">
<rect width="300" height="300" fill="white"/>
</clipPath>
</defs>
</svg>
